<?xml version="1.0" encoding="UTF-8"?>
<svg version="1.1" xmlns="http://www.w3.org/2000/svg" width="3200" height="3200">
<path d="M0 0 C1056 0 2112 0 3200 0 C3200 1056 3200 2112 3200 3200 C2144 3200 1088 3200 0 3200 C0 2144 0 1088 0 0 Z " fill="#628878" transform="translate(0,0)"/>
<path d="M0 0 C99 0 198 0 300 0 C300 132 300 264 300 400 C333 400 366 400 400 400 C400 433 400 466 400 500 C367 500 334 500 300 500 C300 533 300 566 300 600 C267 600 234 600 200 600 C200 567 200 534 200 500 C167 500 134 500 100 500 C100 467 100 434 100 400 C133 400 166 400 200 400 C200 301 200 202 200 100 C134 100 68 100 0 100 C0 67 0 34 0 0 Z " fill="#C7C7C7" transform="translate(1600,1300)"/>
<path d="M0 0 C33 0 66 0 100 0 C100 33 100 66 100 100 C133 100 166 100 200 100 C200 133 200 166 200 200 C167 200 134 200 100 200 C100 299 100 398 100 500 C166 500 232 500 300 500 C300 533 300 566 300 600 C201 600 102 600 0 600 C0 468 0 336 0 200 C-33 200 -66 200 -100 200 C-100 167 -100 134 -100 100 C-67 100 -34 100 0 100 C0 67 0 34 0 0 Z " fill="#C7C7C7" transform="translate(1300,1300)"/>
</svg>
